<?xml version="1.0" standalone="no"?>
<svg xmlns:xlink="http://www.w3.org/1999/xlink" id="wave" style="transform:rotate(0deg); transition: 0.3s" viewBox="0 0 1440 150" version="1.1" xmlns="http://www.w3.org/2000/svg"><defs><linearGradient id="sw-gradient-0" x1="0" x2="0" y1="1" y2="0"><stop stop-color="rgba(58.311, 207.987, 255, 1)" offset="0%"/><stop stop-color="rgba(76.093, 148.287, 234.382, 1)" offset="100%"/></linearGradient></defs><path style="transform:translate(0, 0px); opacity:1" fill="url(#sw-gradient-0)" d="M0,135L21.8,112.5C43.6,90,87,45,131,42.5C174.5,40,218,80,262,95C305.5,110,349,100,393,82.5C436.4,65,480,40,524,37.5C567.3,35,611,55,655,55C698.2,55,742,35,785,22.5C829.1,10,873,5,916,25C960,45,1004,90,1047,107.5C1090.9,125,1135,115,1178,95C1221.8,75,1265,45,1309,27.5C1352.7,10,1396,5,1440,17.5C1483.6,30,1527,60,1571,70C1614.5,80,1658,70,1702,67.5C1745.5,65,1789,70,1833,72.5C1876.4,75,1920,75,1964,67.5C2007.3,60,2051,45,2095,55C2138.2,65,2182,100,2225,110C2269.1,120,2313,105,2356,105C2400,105,2444,120,2487,112.5C2530.9,105,2575,75,2618,72.5C2661.8,70,2705,95,2749,97.5C2792.7,100,2836,80,2880,75C2923.6,70,2967,80,3011,80C3054.5,80,3098,70,3120,65L3141.8,60L3141.8,150L3120,150C3098.2,150,3055,150,3011,150C2967.3,150,2924,150,2880,150C2836.4,150,2793,150,2749,150C2705.5,150,2662,150,2618,150C2574.5,150,2531,150,2487,150C2443.6,150,2400,150,2356,150C2312.7,150,2269,150,2225,150C2181.8,150,2138,150,2095,150C2050.9,150,2007,150,1964,150C1920,150,1876,150,1833,150C1789.1,150,1745,150,1702,150C1658.2,150,1615,150,1571,150C1527.3,150,1484,150,1440,150C1396.4,150,1353,150,1309,150C1265.5,150,1222,150,1178,150C1134.5,150,1091,150,1047,150C1003.6,150,960,150,916,150C872.7,150,829,150,785,150C741.8,150,698,150,655,150C610.9,150,567,150,524,150C480,150,436,150,393,150C349.1,150,305,150,262,150C218.2,150,175,150,131,150C87.3,150,44,150,22,150L0,150Z"/></svg>